<svg width="141" height="127" viewBox="0 0 141 127" fill="none" xmlns="http://www.w3.org/2000/svg">
<path d="M121.769 92.749H109.95C107.807 92.749 107.806 89.7944 109.95 89.7944H121.769C123.912 89.7944 123.913 92.749 121.769 92.749Z" fill="black"/>
<path d="M116.728 100.341H114.791C112.648 100.341 112.647 97.3867 114.791 97.3867H116.728C117.622 97.3867 118.348 98.0484 118.348 98.864C118.348 99.6796 117.622 100.341 116.728 100.341Z" fill="black"/>
<path d="M63.4075 64.21C64.3469 64.917 65.5433 64.5448 65.9237 63.6296C67.7964 59.1271 70.4471 55.6633 73.4533 50.8438C82.2804 50.5216 88.55 53.0232 88.4059 44.8424C87.7587 8.12826 88.6752 6.41445 85.4407 3.59007C83.5557 1.94545 80.4185 0.77401 77.6347 0.674947C63.3578 0.172861 52.0628 1.08482 36.3432 0.97502C17.6523 0.844849 10.0162 2.18554 9.79974 2.19935C8.63794 2.38041 7.58295 2.89556 6.71084 3.66678C3.17704 6.03039 0.374675 8.28671 0.37165 12.9946C0.349296 48.0471 -0.715456 49.2235 1.51196 52.3128C3.39765 54.9282 6.18658 55.2523 9.36764 55.3716C22.4376 55.8615 39.3724 55.9448 53.4643 55.532C54.9709 57.5531 56.5192 59.6042 58.0245 61.6244C59.8638 64.0932 62.6758 63.9865 63.4075 64.21ZM10.3462 5.1116C20.258 3.5692 35.7882 4.15447 54.8687 3.69683C62.3888 3.51602 69.4891 3.34386 77.5092 3.62758C79.4945 3.69779 81.8879 4.57974 83.2002 5.72424C85.2107 7.4808 84.5337 9.03803 85.1654 44.8904C85.2148 47.6854 85.0262 48.2661 80.3225 47.97C78.5873 47.8594 73.1125 47.77 72.0661 48.0104C71.6326 48.1085 71.2623 48.3672 71.044 48.7231C68.5895 52.7246 66.1113 56.0919 64.181 59.8258C61.6884 55.8912 59.2749 52.1874 54.3086 49.5243C52.9766 48.812 50.7748 50.2633 14.401 48.8635C10.1277 48.7077 7.71387 49.0751 7.63833 41.6868C7.29942 8.09857 7.22275 9.19583 7.8609 7.46216C8.04129 6.97358 8.75121 5.35973 10.3462 5.1116Z" fill="black"/>
<path d="M91.4458 87.08C94.6388 85.9622 96.1661 82.8373 94.8571 80.1003C93.5482 77.3635 89.8987 76.051 86.7058 77.1688C83.5129 78.2866 81.9856 81.4116 83.2945 84.1485C84.6072 86.8934 88.2616 88.1947 91.4458 87.08Z" fill="black"/>
<path d="M103.533 97.9588C100.68 92.9874 95.5602 90.6076 89.9832 90.5781C86.5022 90.6156 83.3376 91.7659 80.0242 94.1992C77.6318 95.9563 74.79 98.481 74.0432 102.435C73.8731 103.345 74.6429 104.163 75.6402 104.163C75.8566 104.163 103.616 103.671 103.832 103.654C104.721 103.64 105.431 102.977 105.425 102.167C105.421 101.6 105.157 101.128 104.875 100.618C104.449 99.7044 104.023 98.8128 103.533 97.9588ZM77.7974 101.169C79.4421 97.5853 85.4257 93.209 90.8471 93.5529C96.2196 93.8808 99.378 96.5837 101.402 100.74L77.7974 101.169Z" fill="black"/>
<path d="M139.767 90.7098C139.46 75.2513 139.641 74.2517 138.757 72.0361C137.888 69.8586 136.093 68.391 133.952 68.1092C123.752 66.7666 77.6561 67.718 71.7821 68.064C68.938 68.2307 65.3465 69.6875 63.8322 71.8643L62.3546 73.1323C61.131 74.2192 59.372 77.1632 59.3816 78.7208C59.4494 89.6654 59.5606 101.029 59.6215 111.906C59.6459 116.289 61.1876 117.16 64.7732 117.1C69.116 117.028 73.459 116.955 77.8018 116.883C78.3308 118.556 78.8685 120.244 79.3964 121.916C80.6117 125.763 84.5594 126.208 84.7756 126.314C88.0893 127.82 88.2415 119.463 95.6314 114.995C144.543 115.454 140.339 119.478 139.767 90.7098ZM135.039 111.054C134.049 111.611 132.325 112.051 130.747 112.149C117.669 112.955 95.3867 111.643 94.3055 112.26C89.8877 114.771 87.7632 118.141 85.6197 121.729C84.4499 119.641 83.1197 117.717 81.7357 115.716C78.4718 110.999 79.2884 111.156 76.3327 111.156C67.0657 111.156 66.2211 112.746 66.1765 108.786C65.8267 75.1797 65.2217 74.5841 66.9276 73.0152C68.0774 71.9592 70.205 71.1166 71.9899 71.0128C75.7599 70.7905 107.803 69.8192 133.49 71.033C134.88 71.2157 135.541 72.6199 135.712 73.046C136.516 75.0623 138.038 109.367 135.039 111.054Z" fill="black"/>
<path d="M100.04 45.1047C101.091 42.1405 102.49 39.2715 104.2 36.5767C105.274 34.886 102.471 33.4051 101.396 35.0975C99.5716 37.9712 98.0768 41.0335 96.9555 44.1968C96.2978 46.0582 99.3795 46.9624 100.04 45.1047Z" fill="black"/>
<path d="M104.904 51.073C106.628 51.073 106.353 49.1687 112.076 45.3197C113.8 44.1601 111.876 41.7818 110.152 42.9422C107.715 44.5821 105.522 46.5114 103.636 48.6773C102.787 49.6521 103.566 51.073 104.904 51.073Z" fill="black"/>
<path d="M107.508 58.3415L115.641 58.8714C116.506 58.9337 117.308 58.3358 117.374 57.5038C117.438 56.6901 116.766 55.9832 115.873 55.9246L107.741 55.3946C105.61 55.2454 105.364 58.2028 107.508 58.3415Z" fill="black"/>
<path d="M128.747 79.5537H108.207C106.064 79.5537 106.062 82.5083 108.207 82.5083H128.747C130.89 82.5083 130.891 79.5537 128.747 79.5537Z" fill="black"/>
<path d="M53.2094 18.5918H76.005C78.1481 18.5918 78.1494 15.6372 76.005 15.6372H53.2094C51.0663 15.6372 51.065 18.5918 53.2094 18.5918Z" fill="black"/>
<path d="M72.6819 27.4668H55.1459C53.0028 27.4668 53.0015 30.4214 55.1459 30.4214H72.6819C74.8251 30.4214 74.8264 27.4668 72.6819 27.4668Z" fill="black"/>
<path d="M70.0956 35.5889H65.603C63.4598 35.5889 63.4585 38.5434 65.603 38.5434H70.0956C72.2387 38.5434 72.24 35.5889 70.0956 35.5889Z" fill="black"/>
<path d="M35.5202 21.0155C38.7134 19.9668 40.3 16.8955 39.0637 14.1553C37.8275 11.4152 34.2366 10.044 31.0434 11.0925C27.8502 12.1411 26.2637 15.2125 27.4999 17.9526C28.7398 20.7008 32.3355 22.0609 35.5202 21.0155Z" fill="black"/>
<path d="M49.1094 40.7641C49.1115 40.7641 49.1136 40.7641 49.1157 40.7641C49.9997 40.7641 50.7212 40.1178 50.736 39.3108C50.7465 38.704 50.4659 38.174 50.2602 37.7874C49.6418 36.4133 49.1708 35.3839 48.6589 34.4462C43.8839 25.6799 31.8709 22.3884 21.6102 29.5989C18.7969 31.5792 15.4435 34.4347 14.4783 38.9723C14.3865 39.4051 14.511 39.8523 14.819 40.1928C15.7363 41.2074 15.0725 40.5319 49.1094 40.7641ZM23.5902 31.9379C27.8242 28.9628 30.9126 28.3629 34.1757 28.6265C39.0648 29.0187 43.3446 31.3258 45.757 35.7609C46.1125 36.414 46.4385 37.0997 46.757 37.8037L18.2177 37.7778C19.107 35.7225 20.8 33.9018 23.5902 31.9379Z" fill="black"/>
</svg>
